<svg width="24" height="20" viewBox="0 0 24 20" fill="none" xmlns="http://www.w3.org/2000/svg">
<path d="M0.999998 4.077e-05C0.449999 4.077e-05 0 0.45004 0 1.00004C0 1.55004 0.449999 2.00004 0.999998 2.00004H3.21899L5.84399 12.5C6.06599 13.39 6.86399 14 7.78098 14H19.25C20.152 14 20.918 13.402 21.156 12.531L23.75 3.00003H6.99999L7.49998 5.00003H21.156L19.25 12H7.78098L5.15599 1.50004C5.04784 1.06935 4.79826 0.687423 4.44723 0.41545C4.0962 0.143476 3.66404 -0.00280572 3.21999 4.077e-05H0.999998ZM18 14C16.355 14 15 15.355 15 17C15 18.645 16.355 20 18 20C19.645 20 21 18.645 21 17C21 15.355 19.645 14 18 14ZM8.99998 14C7.35498 14 5.99999 15.355 5.99999 17C5.99999 18.645 7.35498 20 8.99998 20C10.645 20 12 18.645 12 17C12 15.355 10.645 14 8.99998 14ZM8.99998 16C9.56298 16 9.99998 16.438 9.99998 17C9.99998 17.563 9.56198 18 8.99998 18C8.43698 18 7.99998 17.562 7.99998 17C7.99998 16.437 8.43798 16 8.99998 16ZM18 16C18.563 16 19 16.438 19 17C19 17.563 18.562 18 18 18C17.437 18 17 17.562 17 17C17 16.437 17.438 16 18 16Z" fill="white"/>
</svg>
