<svg width="48" height="48" viewBox="0 0 48 48" fill="none" xmlns="http://www.w3.org/2000/svg">
<path d="M44.4255 0H3.57447C2.62646 0 1.71728 0.376595 1.04694 1.04694C0.376595 1.71728 0 2.62646 0 3.57447V44.4255C0 45.3735 0.376595 46.2827 1.04694 46.9531C1.71728 47.6234 2.62646 48 3.57447 48H44.4255C45.3735 48 46.2827 47.6234 46.9531 46.9531C47.6234 46.2827 48 45.3735 48 44.4255V3.57447C48 2.62646 47.6234 1.71728 46.9531 1.04694C46.2827 0.376595 45.3735 0 44.4255 0ZM44.9362 44.4255C44.9362 44.561 44.8824 44.6908 44.7866 44.7866C44.6908 44.8824 44.561 44.9362 44.4255 44.9362H3.57447C3.43904 44.9362 3.30916 44.8824 3.21339 44.7866C3.11763 44.6908 3.06383 44.561 3.06383 44.4255V3.57447C3.06383 3.43904 3.11763 3.30916 3.21339 3.21339C3.30916 3.11763 3.43904 3.06383 3.57447 3.06383H44.4255C44.561 3.06383 44.6908 3.11763 44.7866 3.21339C44.8824 3.30916 44.9362 3.43904 44.9362 3.57447V44.4255ZM33.2528 16.9123L26.1651 24L33.2528 31.0877C33.4033 31.2279 33.524 31.397 33.6077 31.5849C33.6915 31.7729 33.7365 31.9757 33.7401 32.1814C33.7437 32.3871 33.7059 32.5914 33.6288 32.7822C33.5518 32.9729 33.4371 33.1462 33.2917 33.2917C33.1462 33.4371 32.9729 33.5518 32.7822 33.6288C32.5914 33.7059 32.3871 33.7437 32.1814 33.7401C31.9757 33.7365 31.7729 33.6915 31.5849 33.6077C31.397 33.524 31.2279 33.4033 31.0877 33.2528L24 26.1651L16.9123 33.2528C16.6219 33.5234 16.2378 33.6707 15.841 33.6637C15.4441 33.6567 15.0654 33.4959 14.7848 33.2152C14.5041 32.9346 14.3433 32.5559 14.3363 32.159C14.3293 31.7622 14.4766 31.3781 14.7472 31.0877L21.8349 24L14.7472 16.9123C14.4766 16.6219 14.3293 16.2378 14.3363 15.841C14.3433 15.4441 14.5041 15.0654 14.7848 14.7848C15.0654 14.5041 15.4441 14.3433 15.841 14.3363C16.2378 14.3293 16.6219 14.4766 16.9123 14.7472L24 21.8349L31.0877 14.7472C31.3781 14.4766 31.7622 14.3293 32.159 14.3363C32.5559 14.3433 32.9346 14.5041 33.2152 14.7848C33.4959 15.0654 33.6567 15.4441 33.6637 15.841C33.6707 16.2378 33.5234 16.6219 33.2528 16.9123Z" fill="#646464"/>
</svg>
