<svg width="26" height="19" viewBox="0 0 26 19" fill="none" xmlns="http://www.w3.org/2000/svg">
<path d="M20.2336 11.3861L19.5359 12.0945C19.722 12.2775 19.9726 12.3801 20.2336 12.3801C20.4947 12.3801 20.7453 12.2775 20.9313 12.0945L20.2336 11.3861ZM19.524 16.5686C18.8647 16.0831 18.0941 15.4464 17.4985 14.7606C16.875 14.043 16.5859 13.4342 16.5859 12.9858H14.5962C14.5962 14.177 15.2913 15.2541 15.9969 16.0659C16.7291 16.9095 17.6311 17.6443 18.3448 18.1709L19.524 16.5686ZM16.5859 12.9858C16.5859 11.9817 17.0408 11.5042 17.4666 11.3516C17.9137 11.1898 18.687 11.2588 19.5359 12.0945L20.9313 10.6765C19.6924 9.45614 18.1431 8.99188 16.7915 9.48001C15.4186 9.97478 14.5962 11.3264 14.5962 12.9858H16.5859ZM22.1225 18.1709C22.8361 17.6457 23.7381 16.9095 24.4703 16.0659C25.176 15.2527 25.8711 14.177 25.8711 12.9858H23.8814C23.8814 13.4328 23.5922 14.043 22.9688 14.7606C22.3719 15.4464 21.6025 16.0831 20.9433 16.5686L22.1225 18.1709ZM25.8711 12.9858C25.8711 11.3264 25.0487 9.97478 23.6758 9.48001C22.3228 8.99188 20.7748 9.45614 19.5359 10.6765L20.9313 12.0945C21.7803 11.2588 22.5536 11.1898 23.0006 11.3516C23.4264 11.5042 23.8814 11.983 23.8814 12.9858H25.8711ZM18.3448 18.1709C18.8462 18.5397 19.4086 19 20.2336 19V17.0103C20.2071 17.0103 20.1859 17.0116 20.105 16.9692C19.9032 16.8479 19.7091 16.7141 19.524 16.5686L18.3448 18.1709ZM20.9433 16.5686C20.7573 16.7142 20.5637 16.848 20.361 16.9692C20.2814 17.0116 20.2602 17.0103 20.2336 17.0103V19C21.0587 19 21.6211 18.5397 22.1225 18.1709L20.9433 16.5686Z" fill="white"/>
<path d="M10.2852 11.6116H1M10.2852 16.9175H1M1 1H14.9278M23.5497 1H20.5652M23.5497 6.30582H9.62196M1 6.30582H3.98452" stroke="white" stroke-width="1.5" stroke-linecap="round"/>
</svg>
