<svg width="20" height="20" viewBox="0 0 20 20" fill="none" xmlns="http://www.w3.org/2000/svg">
<mask id="path-1-inside-1_65_1012" fill="white">
<path d="M20 10C20 15.5228 15.5228 20 10 20C4.47715 20 0 15.5228 0 10C0 4.47715 4.47715 0 10 0C15.5228 0 20 4.47715 20 10ZM1 10C1 14.9706 5.02944 19 10 19C14.9706 19 19 14.9706 19 10C19 5.02944 14.9706 1 10 1C5.02944 1 1 5.02944 1 10Z"/>
</mask>
<path d="M20 10C20 15.5228 15.5228 20 10 20C4.47715 20 0 15.5228 0 10C0 4.47715 4.47715 0 10 0C15.5228 0 20 4.47715 20 10ZM1 10C1 14.9706 5.02944 19 10 19C14.9706 19 19 14.9706 19 10C19 5.02944 14.9706 1 10 1C5.02944 1 1 5.02944 1 10Z" stroke="#14171C" stroke-width="2" mask="url(#path-1-inside-1_65_1012)"/>
<path d="M4 8.73927C4 11.8466 6.412 13.5022 8.1772 14.9847C8.8 15.5073 9.4 16 10 16C10.6 16 11.2 15.508 11.8228 14.984C13.5886 13.5029 16 11.8466 16 8.73991C16 5.63255 12.7 3.4287 10 6.41657C7.3 3.42806 4 5.63191 4 8.73927Z" fill="#14171C"/>
</svg>
