<svg width="20" height="20" viewBox="0 0 20 20" fill="none" xmlns="http://www.w3.org/2000/svg">
<mask id="path-1-inside-1_65_1010" fill="white">
<path d="M20 10C20 15.5228 15.5228 20 10 20C4.47715 20 0 15.5228 0 10C0 4.47715 4.47715 0 10 0C15.5228 0 20 4.47715 20 10ZM1 10C1 14.9706 5.02944 19 10 19C14.9706 19 19 14.9706 19 10C19 5.02944 14.9706 1 10 1C5.02944 1 1 5.02944 1 10Z"/>
</mask>
<path d="M20 10C20 15.5228 15.5228 20 10 20C4.47715 20 0 15.5228 0 10C0 4.47715 4.47715 0 10 0C15.5228 0 20 4.47715 20 10ZM1 10C1 14.9706 5.02944 19 10 19C14.9706 19 19 14.9706 19 10C19 5.02944 14.9706 1 10 1C5.02944 1 1 5.02944 1 10Z" stroke="#14171C" stroke-width="2" mask="url(#path-1-inside-1_65_1010)"/>
<mask id="path-2-inside-2_65_1010" fill="white">
<path d="M20 10C20 15.5228 15.5228 20 10 20C4.47715 20 0 15.5228 0 10C0 4.47715 4.47715 0 10 0C15.5228 0 20 4.47715 20 10ZM1 10C1 14.9706 5.02944 19 10 19C14.9706 19 19 14.9706 19 10C19 5.02944 14.9706 1 10 1C5.02944 1 1 5.02944 1 10Z"/>
</mask>
<path d="M20 10C20 15.5228 15.5228 20 10 20C4.47715 20 0 15.5228 0 10C0 4.47715 4.47715 0 10 0C15.5228 0 20 4.47715 20 10ZM1 10C1 14.9706 5.02944 19 10 19C14.9706 19 19 14.9706 19 10C19 5.02944 14.9706 1 10 1C5.02944 1 1 5.02944 1 10Z" stroke="#14171C" stroke-width="1.6" mask="url(#path-2-inside-2_65_1010)"/>
<path d="M10 6.74312L9.69861 7.04874C9.73765 7.0914 9.78447 7.12534 9.83626 7.14852C9.88804 7.17169 9.94373 7.18364 10 7.18364C10.0563 7.18364 10.112 7.17169 10.1637 7.14852C10.2155 7.12534 10.2623 7.0914 10.3014 7.04874L10 6.74312ZM7.20986 13.1612C7.124 13.0869 7.01362 13.0515 6.90298 13.0628C6.79234 13.0742 6.69052 13.1314 6.61991 13.2218C6.5493 13.3122 6.51569 13.4284 6.52647 13.5449C6.53725 13.6614 6.59154 13.7686 6.6774 13.843L7.20986 13.1612ZM4.60949 11.3927C4.63587 11.4435 4.6715 11.4883 4.71434 11.5246C4.75717 11.5609 4.80637 11.5879 4.85913 11.6042C4.9119 11.6205 4.96718 11.6256 5.02184 11.6194C5.07649 11.6132 5.12945 11.5956 5.17767 11.5679C5.2259 11.5401 5.26846 11.5026 5.30292 11.4575C5.33738 11.4123 5.36307 11.3605 5.37851 11.305C5.39396 11.2494 5.39886 11.1912 5.39294 11.1336C5.38702 11.0761 5.37039 11.0203 5.344 10.9695L4.60949 11.3927ZM4.83721 8.88072C4.83721 7.61709 5.51535 6.55681 6.4413 6.11071C7.34102 5.67755 8.54995 5.79216 9.69861 7.04874L10.3014 6.43808C8.93954 4.94699 7.35665 4.70073 6.09302 5.30904C4.8573 5.90442 4 7.28678 4 8.88072H4.83721ZM8.04484 14.9715C8.33116 15.2089 8.63814 15.4616 8.94902 15.6532C9.25991 15.8442 9.61488 16 10 16V15.1184C9.82698 15.1184 9.62381 15.0479 9.37153 14.8921C9.1187 14.7369 8.85693 14.523 8.56335 14.2791L8.04484 14.9715ZM11.9552 14.9715C12.7511 14.3103 13.7691 13.5532 14.5673 12.6064C15.3805 11.6425 16 10.4476 16 8.88072H15.1628C15.1628 10.172 14.6605 11.1676 13.9416 12.021C13.2076 12.8909 12.2828 13.5768 11.4367 14.2791L11.9552 14.9715ZM16 8.88072C16 7.28678 15.1433 5.90442 13.907 5.30904C12.6433 4.70073 11.0616 4.94699 9.69861 6.43749L10.3014 7.04874C11.45 5.79275 12.659 5.67755 13.5587 6.11071C14.4847 6.55681 15.1628 7.6165 15.1628 8.88072H16ZM11.4367 14.2791C11.1431 14.523 10.8813 14.7369 10.6285 14.8921C10.3762 15.0473 10.173 15.1184 10 15.1184V16C10.3851 16 10.7401 15.8442 11.051 15.6532C11.3624 15.4616 11.6688 15.2089 11.9552 14.9715L11.4367 14.2791ZM8.56335 14.2791C8.11907 13.9106 7.66754 13.5579 7.20986 13.1612L6.6774 13.843C7.14065 14.2444 7.6307 14.6276 8.04484 14.9715L8.56391 14.2791H8.56335ZM5.344 10.9701C5.00778 10.3309 4.83327 9.61142 4.83721 8.88072H4C4 9.84344 4.23442 10.671 4.60949 11.3927L5.344 10.9695V10.9701Z" fill="#14171C"/>
</svg>
